<svg width="498" height="152" viewBox="0 0 498 152" fill="none" xmlns="http://www.w3.org/2000/svg">
<g filter="url(#filter0_i_1_69)">
<path d="M184.813 48.1937C182.238 48.1937 180.188 47.452 178.663 45.9686C177.139 44.4645 176.376 42.2806 176.376 39.4168V34.472C176.376 31.6082 177.139 29.4346 178.663 27.9511C180.188 26.4471 182.238 25.6951 184.813 25.6951C187.368 25.6951 189.325 26.4059 190.685 27.8275C192.066 29.2491 192.756 31.1961 192.756 33.6685V33.823H190.191V33.5758C190.191 31.9481 189.748 30.6192 188.862 29.5891C187.996 28.5383 186.647 28.0129 184.813 28.0129C182.98 28.0129 181.548 28.5795 180.518 29.7127C179.487 30.8253 178.972 32.3911 178.972 34.4102V39.4786C178.972 41.4977 179.487 43.0738 180.518 44.207C181.548 45.3196 182.98 45.8759 184.813 45.8759C186.647 45.8759 187.996 45.3608 188.862 44.3306C189.748 43.2799 190.191 41.9407 190.191 40.313V39.8185H192.756V40.2203C192.756 42.6927 192.066 44.6397 190.685 46.0613C189.325 47.4829 187.368 48.1937 184.813 48.1937ZM201.551 48.1937C200.501 48.1937 199.542 48.0083 198.677 47.6374C197.812 47.2666 197.132 46.7309 196.637 46.0304C196.143 45.3299 195.896 44.4748 195.896 43.4653C195.896 42.4351 196.143 41.5904 196.637 40.9311C197.132 40.2512 197.812 39.7464 198.677 39.4168C199.542 39.0665 200.511 38.8914 201.582 38.8914H206.681V37.7788C206.681 36.7075 206.362 35.8627 205.723 35.2446C205.105 34.6266 204.178 34.3175 202.942 34.3175C201.726 34.3175 200.779 34.6163 200.099 35.2137C199.419 35.7906 198.955 36.5735 198.708 37.5625L196.421 36.8208C196.668 35.9761 197.06 35.2137 197.595 34.5338C198.131 33.8333 198.842 33.277 199.728 32.865C200.634 32.4323 201.716 32.216 202.973 32.216C204.91 32.216 206.414 32.7208 207.485 33.7303C208.556 34.7193 209.092 36.1203 209.092 37.9334V44.7633C209.092 45.3814 209.38 45.6904 209.957 45.6904H211.348V47.761H209.216C208.536 47.761 207.99 47.5756 207.578 47.2048C207.166 46.8133 206.96 46.2982 206.96 45.6595V45.505H206.589C206.362 45.8965 206.053 46.3085 205.662 46.7412C205.291 47.1533 204.776 47.4932 204.116 47.761C203.457 48.0495 202.602 48.1937 201.551 48.1937ZM201.829 46.0922C203.272 46.0922 204.436 45.6698 205.322 44.8251C206.228 43.9598 206.681 42.7545 206.681 41.2093V40.8693H201.675C200.707 40.8693 199.903 41.0856 199.264 41.5183C198.646 41.9304 198.337 42.5588 198.337 43.4035C198.337 44.2482 198.657 44.9075 199.295 45.3814C199.955 45.8553 200.799 46.0922 201.829 46.0922ZM214.692 47.761V32.6487H217.071V35.2137H217.504C217.834 34.4926 218.39 33.8436 219.173 33.2667C219.977 32.6693 221.151 32.3705 222.696 32.3705C223.829 32.3705 224.839 32.6074 225.725 33.0813C226.631 33.5552 227.352 34.2557 227.888 35.1828C228.424 36.11 228.692 37.2535 228.692 38.6133V47.761H226.25V38.7987C226.25 37.2947 225.869 36.2027 225.107 35.5228C224.365 34.8429 223.355 34.5029 222.078 34.5029C220.615 34.5029 219.42 34.9768 218.493 35.9245C217.587 36.8723 217.133 38.2836 217.133 40.1585V47.761H214.692ZM238.281 48.1937C237.23 48.1937 236.272 48.0083 235.407 47.6374C234.541 47.2666 233.861 46.7309 233.367 46.0304C232.872 45.3299 232.625 44.4748 232.625 43.4653C232.625 42.4351 232.872 41.5904 233.367 40.9311C233.861 40.2512 234.541 39.7464 235.407 39.4168C236.272 39.0665 237.24 38.8914 238.312 38.8914H243.411V37.7788C243.411 36.7075 243.092 35.8627 242.453 35.2446C241.835 34.6266 240.908 34.3175 239.672 34.3175C238.456 34.3175 237.508 34.6163 236.828 35.2137C236.148 35.7906 235.685 36.5735 235.438 37.5625L233.151 36.8208C233.398 35.9761 233.789 35.2137 234.325 34.5338C234.861 33.8333 235.571 33.277 236.457 32.865C237.364 32.4323 238.446 32.216 239.702 32.216C241.639 32.216 243.143 32.7208 244.214 33.7303C245.286 34.7193 245.822 36.1203 245.822 37.9334V44.7633C245.822 45.3814 246.11 45.6904 246.687 45.6904H248.078V47.761H245.945C245.265 47.761 244.719 47.5756 244.307 47.2048C243.895 46.8133 243.689 46.2982 243.689 45.6595V45.505H243.318C243.092 45.8965 242.783 46.3085 242.391 46.7412C242.02 47.1533 241.505 47.4932 240.846 47.761C240.187 48.0495 239.332 48.1937 238.281 48.1937ZM238.559 46.0922C240.001 46.0922 241.165 45.6698 242.051 44.8251C242.958 43.9598 243.411 42.7545 243.411 41.2093V40.8693H238.404C237.436 40.8693 236.633 41.0856 235.994 41.5183C235.376 41.9304 235.067 42.5588 235.067 43.4035C235.067 44.2482 235.386 44.9075 236.025 45.3814C236.684 45.8553 237.529 46.0922 238.559 46.0922ZM257.396 48.1937C256.098 48.1937 254.903 47.8847 253.811 47.2666C252.719 46.6485 251.854 45.7522 251.215 44.5779C250.576 43.4035 250.257 42.0128 250.257 40.4057V40.004C250.257 38.3969 250.576 37.0165 251.215 35.8627C251.854 34.6884 252.709 33.7921 253.78 33.174C254.872 32.5353 256.077 32.216 257.396 32.216C258.447 32.216 259.333 32.3602 260.054 32.6487C260.796 32.9165 261.393 33.2667 261.846 33.6994C262.3 34.1115 262.65 34.5544 262.897 35.0283H263.33V26.1278H265.771V47.761H263.392V45.2578H262.959C262.547 46.0201 261.908 46.7 261.043 47.2975C260.177 47.895 258.962 48.1937 257.396 48.1937ZM258.045 46.0304C259.611 46.0304 260.878 45.5359 261.846 44.547C262.835 43.5374 263.33 42.1364 263.33 40.3439V40.0658C263.33 38.2733 262.835 36.8826 261.846 35.8936C260.878 34.8841 259.611 34.3793 258.045 34.3793C256.5 34.3793 255.222 34.8841 254.213 35.8936C253.224 36.8826 252.729 38.2733 252.729 40.0658V40.3439C252.729 42.1364 253.224 43.5374 254.213 44.547C255.222 45.5359 256.5 46.0304 258.045 46.0304ZM270.888 47.761V32.6487H273.329V47.761H270.888ZM272.124 30.2999C271.588 30.2999 271.135 30.1248 270.764 29.7745C270.414 29.4243 270.239 28.9813 270.239 28.4456C270.239 27.8893 270.414 27.4361 270.764 27.0858C271.135 26.7356 271.588 26.5604 272.124 26.5604C272.66 26.5604 273.102 26.7356 273.453 27.0858C273.803 27.4361 273.978 27.8893 273.978 28.4456C273.978 28.9813 273.803 29.4243 273.453 29.7745C273.102 30.1248 272.66 30.2999 272.124 30.2999ZM283.099 48.1937C282.048 48.1937 281.09 48.0083 280.224 47.6374C279.359 47.2666 278.679 46.7309 278.185 46.0304C277.69 45.3299 277.443 44.4748 277.443 43.4653C277.443 42.4351 277.69 41.5904 278.185 40.9311C278.679 40.2512 279.359 39.7464 280.224 39.4168C281.09 39.0665 282.058 38.8914 283.13 38.8914H288.229V37.7788C288.229 36.7075 287.909 35.8627 287.271 35.2446C286.653 34.6266 285.726 34.3175 284.489 34.3175C283.274 34.3175 282.326 34.6163 281.646 35.2137C280.966 35.7906 280.503 36.5735 280.255 37.5625L277.968 36.8208C278.216 35.9761 278.607 35.2137 279.143 34.5338C279.679 33.8333 280.389 33.277 281.275 32.865C282.182 32.4323 283.263 32.216 284.52 32.216C286.457 32.216 287.961 32.7208 289.032 33.7303C290.104 34.7193 290.639 36.1203 290.639 37.9334V44.7633C290.639 45.3814 290.928 45.6904 291.505 45.6904H292.895V47.761H290.763C290.083 47.761 289.537 47.5756 289.125 47.2048C288.713 46.8133 288.507 46.2982 288.507 45.6595V45.505H288.136C287.909 45.8965 287.6 46.3085 287.209 46.7412C286.838 47.1533 286.323 47.4932 285.664 47.761C285.004 48.0495 284.149 48.1937 283.099 48.1937ZM283.377 46.0922C284.819 46.0922 285.983 45.6698 286.869 44.8251C287.776 43.9598 288.229 42.7545 288.229 41.2093V40.8693H283.222C282.254 40.8693 281.45 41.0856 280.812 41.5183C280.194 41.9304 279.885 42.5588 279.885 43.4035C279.885 44.2482 280.204 44.9075 280.843 45.3814C281.502 45.8553 282.347 46.0922 283.377 46.0922ZM296.239 47.761V32.6487H298.619V35.2137H299.051C299.381 34.4926 299.937 33.8436 300.72 33.2667C301.524 32.6693 302.698 32.3705 304.243 32.3705C305.377 32.3705 306.386 32.6074 307.272 33.0813C308.179 33.5552 308.9 34.2557 309.435 35.1828C309.971 36.11 310.239 37.2535 310.239 38.6133V47.761H307.798V38.7987C307.798 37.2947 307.416 36.2027 306.654 35.5228C305.912 34.8429 304.903 34.5029 303.625 34.5029C302.163 34.5029 300.968 34.9768 300.04 35.9245C299.134 36.8723 298.681 38.2836 298.681 40.1585V47.761H296.239ZM330.856 48.1937C329.249 48.1937 327.848 47.9053 326.653 47.3284C325.458 46.7515 324.531 45.8965 323.872 44.7633C323.212 43.6095 322.883 42.1982 322.883 40.5293V26.1278H325.448V40.5603C325.448 42.3321 325.922 43.661 326.869 44.547C327.817 45.4329 329.146 45.8759 330.856 45.8759C332.566 45.8759 333.895 45.4329 334.843 44.547C335.79 43.661 336.264 42.3321 336.264 40.5603V26.1278H338.86V40.5293C338.86 42.1982 338.531 43.6095 337.871 44.7633C337.212 45.8965 336.275 46.7515 335.059 47.3284C333.864 47.9053 332.463 48.1937 330.856 48.1937ZM343.713 47.761V32.6487H346.093V35.2137H346.525C346.855 34.4926 347.411 33.8436 348.194 33.2667C348.998 32.6693 350.172 32.3705 351.717 32.3705C352.85 32.3705 353.86 32.6074 354.746 33.0813C355.652 33.5552 356.373 34.2557 356.909 35.1828C357.445 36.11 357.713 37.2535 357.713 38.6133V47.761H355.271V38.7987C355.271 37.2947 354.89 36.2027 354.128 35.5228C353.386 34.8429 352.376 34.5029 351.099 34.5029C349.636 34.5029 348.441 34.9768 347.514 35.9245C346.608 36.8723 346.154 38.2836 346.154 40.1585V47.761H343.713ZM362.666 47.761V32.6487H365.108V47.761H362.666ZM363.902 30.2999C363.367 30.2999 362.913 30.1248 362.543 29.7745C362.192 29.4243 362.017 28.9813 362.017 28.4456C362.017 27.8893 362.192 27.4361 362.543 27.0858C362.913 26.7356 363.367 26.5604 363.902 26.5604C364.438 26.5604 364.881 26.7356 365.231 27.0858C365.581 27.4361 365.757 27.8893 365.757 28.4456C365.757 28.9813 365.581 29.4243 365.231 29.7745C364.881 30.1248 364.438 30.2999 363.902 30.2999ZM374.074 47.761L368.665 32.6487H371.261L375.804 45.9377H376.237L380.78 32.6487H383.376L377.968 47.761H374.074ZM393.19 48.1937C391.665 48.1937 390.326 47.8744 389.172 47.2357C388.018 46.5764 387.122 45.6595 386.484 44.4851C385.845 43.3108 385.525 41.951 385.525 40.4057V40.0349C385.525 38.469 385.845 37.0989 386.484 35.9245C387.122 34.7502 388.008 33.8436 389.141 33.2049C390.275 32.5456 391.572 32.216 393.035 32.216C394.457 32.216 395.714 32.525 396.806 33.1431C397.898 33.7406 398.753 34.6059 399.371 35.7391C399.989 36.8723 400.298 38.2012 400.298 39.7258V40.8384H387.967C388.029 42.466 388.554 43.7434 389.543 44.6706C390.532 45.5771 391.768 46.0304 393.252 46.0304C394.55 46.0304 395.549 45.7316 396.249 45.1341C396.95 44.5367 397.486 43.8258 397.856 43.0017L399.958 44.0216C399.649 44.6603 399.216 45.299 398.66 45.9377C398.124 46.5764 397.413 47.112 396.528 47.5447C395.662 47.9774 394.55 48.1937 393.19 48.1937ZM387.998 38.8296H397.826C397.743 37.4286 397.259 36.3366 396.373 35.5537C395.508 34.7708 394.395 34.3793 393.035 34.3793C391.655 34.3793 390.522 34.7708 389.636 35.5537C388.75 36.3366 388.204 37.4286 387.998 38.8296ZM404.556 47.761V32.6487H406.936V34.5029H407.369C407.637 33.8436 408.049 33.3595 408.605 33.0504C409.161 32.7414 409.893 32.5868 410.799 32.5868H412.592V34.812H410.645C409.553 34.812 408.667 35.121 407.987 35.7391C407.328 36.3366 406.998 37.2741 406.998 38.5514V47.761H404.556ZM421.993 48.1937C420.118 48.1937 418.531 47.761 417.233 46.8957C415.956 46.0304 415.183 44.6603 414.915 42.7854L417.233 42.26C417.398 43.249 417.707 44.0319 418.16 44.6088C418.614 45.1651 419.17 45.5668 419.829 45.8141C420.509 46.0407 421.23 46.154 421.993 46.154C423.126 46.154 424.022 45.9274 424.681 45.4741C425.341 45.0208 425.67 44.413 425.67 43.6507C425.67 42.8678 425.351 42.3218 424.712 42.0128C424.094 41.6831 423.239 41.4153 422.147 41.2093L420.88 40.9929C419.912 40.8281 419.026 40.5706 418.222 40.2203C417.419 39.87 416.78 39.3962 416.306 38.7987C415.832 38.2012 415.595 37.4492 415.595 36.5426C415.595 35.1828 416.121 34.1218 417.171 33.3595C418.222 32.5971 419.613 32.216 421.344 32.216C423.054 32.216 424.434 32.6074 425.485 33.3904C426.556 34.1527 427.246 35.2343 427.555 36.6354L425.268 37.2225C425.083 36.1306 424.64 35.3683 423.94 34.9356C423.239 34.4823 422.374 34.2557 421.344 34.2557C420.313 34.2557 419.5 34.4514 418.902 34.8429C418.305 35.2137 418.006 35.77 418.006 36.5117C418.006 37.2328 418.284 37.7685 418.84 38.1188C419.417 38.4484 420.179 38.6957 421.127 38.8605L422.394 39.0768C423.466 39.2623 424.424 39.5198 425.268 39.8494C426.134 40.1585 426.814 40.6118 427.308 41.2093C427.823 41.8067 428.081 42.5897 428.081 43.558C428.081 45.0414 427.524 46.1849 426.412 46.9884C425.32 47.792 423.847 48.1937 421.993 48.1937ZM432.202 47.761V32.6487H434.643V47.761H432.202ZM433.438 30.2999C432.902 30.2999 432.449 30.1248 432.078 29.7745C431.728 29.4243 431.553 28.9813 431.553 28.4456C431.553 27.8893 431.728 27.4361 432.078 27.0858C432.449 26.7356 432.902 26.5604 433.438 26.5604C433.974 26.5604 434.417 26.7356 434.767 27.0858C435.117 27.4361 435.292 27.8893 435.292 28.4456C435.292 28.9813 435.117 29.4243 434.767 29.7745C434.417 30.1248 433.974 30.2999 433.438 30.2999ZM445.34 47.761C444.474 47.761 443.805 47.5241 443.331 47.0502C442.878 46.5764 442.651 45.9274 442.651 45.1032V34.7811H438.108V32.6487H442.651V27.2712H445.093V32.6487H450.037V34.7811H445.093V44.7324C445.093 45.3505 445.391 45.6595 445.989 45.6595H449.357V47.761H445.34ZM455.815 53.942V51.7787H464.469C465.066 51.7787 465.365 51.4696 465.365 50.8515V45.3505H464.932C464.726 45.7831 464.407 46.2158 463.974 46.6485C463.562 47.0605 463.016 47.4005 462.336 47.6683C461.656 47.9156 460.801 48.0392 459.771 48.0392C458.679 48.0392 457.67 47.8023 456.742 47.3284C455.836 46.8545 455.115 46.154 454.579 45.2269C454.064 44.2997 453.806 43.1665 453.806 41.8273V32.6487H456.248V41.6419C456.248 43.1253 456.619 44.207 457.361 44.8869C458.123 45.5668 459.143 45.9068 460.42 45.9068C461.862 45.9068 463.047 45.4329 463.974 44.4851C464.901 43.5374 465.365 42.1261 465.365 40.2512V32.6487H467.806V51.2842C467.806 52.1083 467.569 52.7573 467.095 53.2312C466.642 53.705 465.973 53.942 465.087 53.942H455.815ZM184.195 82.1937C182.629 82.1937 181.228 81.9156 179.992 81.3593C178.756 80.803 177.777 79.9686 177.056 78.856C176.356 77.7228 176.005 76.3115 176.005 74.6221V73.9731H178.571V74.6221C178.571 76.4145 179.096 77.7537 180.147 78.6397C181.197 79.505 182.547 79.9377 184.195 79.9377C185.885 79.9377 187.172 79.5565 188.058 78.7942C188.944 78.0319 189.387 77.0738 189.387 75.9201C189.387 75.1165 189.181 74.4778 188.769 74.004C188.378 73.5301 187.821 73.1489 187.1 72.8605C186.379 72.5514 185.534 72.2836 184.566 72.057L182.959 71.6552C181.702 71.3256 180.59 70.9238 179.621 70.4499C178.653 69.9761 177.891 69.358 177.334 68.5956C176.799 67.8127 176.531 66.8135 176.531 65.5979C176.531 64.3823 176.83 63.3315 177.427 62.4456C178.045 61.5597 178.9 60.8798 179.992 60.4059C181.105 59.932 182.382 59.6951 183.824 59.6951C185.287 59.6951 186.595 59.9526 187.749 60.4677C188.924 60.9622 189.84 61.7039 190.5 62.6929C191.18 63.6612 191.52 64.8871 191.52 66.3705V67.6685H188.954V66.3705C188.954 65.3198 188.728 64.475 188.275 63.8363C187.842 63.1976 187.234 62.7238 186.451 62.4147C185.689 62.1057 184.813 61.9511 183.824 61.9511C182.403 61.9511 181.259 62.2705 180.394 62.9092C179.529 63.5273 179.096 64.4132 179.096 65.567C179.096 66.3293 179.281 66.9474 179.652 67.4213C180.023 67.8951 180.548 68.2866 181.228 68.5956C181.908 68.8841 182.722 69.1416 183.67 69.3683L185.277 69.77C186.534 70.0379 187.656 70.4087 188.645 70.8826C189.655 71.3359 190.459 71.9643 191.056 72.7678C191.654 73.5507 191.952 74.5809 191.952 75.8583C191.952 77.1356 191.633 78.2482 190.994 79.196C190.356 80.1437 189.449 80.8854 188.275 81.4211C187.121 81.9362 185.761 82.1937 184.195 82.1937ZM203.025 82.1937C201.5 82.1937 200.151 81.8744 198.976 81.2357C197.823 80.597 196.916 79.7007 196.257 78.547C195.618 77.3726 195.299 75.9922 195.299 74.4057V74.004C195.299 72.4381 195.618 71.068 196.257 69.8936C196.916 68.7193 197.823 67.8127 198.976 67.174C200.151 66.5353 201.5 66.216 203.025 66.216C204.549 66.216 205.889 66.5353 207.042 67.174C208.217 67.8127 209.123 68.7193 209.762 69.8936C210.421 71.068 210.751 72.4381 210.751 74.004V74.4057C210.751 75.9922 210.421 77.3726 209.762 78.547C209.123 79.7007 208.217 80.597 207.042 81.2357C205.889 81.8744 204.549 82.1937 203.025 82.1937ZM203.025 79.9995C204.632 79.9995 205.909 79.4947 206.857 78.4851C207.825 77.455 208.31 76.0746 208.31 74.3439V74.0658C208.31 72.3351 207.825 70.965 206.857 69.9555C205.909 68.9253 204.632 68.4102 203.025 68.4102C201.438 68.4102 200.161 68.9253 199.193 69.9555C198.224 70.965 197.74 72.3351 197.74 74.0658V74.3439C197.74 76.0746 198.224 77.455 199.193 78.4851C200.161 79.4947 201.438 79.9995 203.025 79.9995ZM217.478 81.761V68.7811H212.842V66.6487H217.478V62.7856C217.478 61.9614 217.704 61.3124 218.157 60.8386C218.631 60.3647 219.301 60.1278 220.166 60.1278H223.968V62.2293H220.846C220.228 62.2293 219.919 62.5383 219.919 63.1564V66.6487H224.678V68.7811H219.919V81.761H217.478ZM233.232 81.761C232.367 81.761 231.697 81.5241 231.223 81.0502C230.77 80.5764 230.544 79.9274 230.544 79.1032V68.7811H226.001V66.6487H230.544V61.2712H232.985V66.6487H237.93V68.7811H232.985V78.7324C232.985 79.3505 233.284 79.6595 233.881 79.6595H237.25V81.761H233.232ZM243.986 81.761L240.957 66.6487H243.43L245.933 80.1231H246.366L249.672 66.6487H253.721L257.028 80.1231H257.46L259.964 66.6487H262.436L259.407 81.761H255.235L251.897 68.2866H251.496L248.158 81.761H243.986ZM271.026 82.1937C269.976 82.1937 269.018 82.0083 268.152 81.6374C267.287 81.2666 266.607 80.7309 266.113 80.0304C265.618 79.3299 265.371 78.4748 265.371 77.4653C265.371 76.4351 265.618 75.5904 266.113 74.9311C266.607 74.2512 267.287 73.7464 268.152 73.4168C269.018 73.0665 269.986 72.8914 271.057 72.8914H276.157V71.7788C276.157 70.7075 275.837 69.8627 275.199 69.2446C274.581 68.6266 273.653 68.3175 272.417 68.3175C271.202 68.3175 270.254 68.6163 269.574 69.2137C268.894 69.7906 268.43 70.5735 268.183 71.5625L265.896 70.8208C266.144 69.9761 266.535 69.2137 267.071 68.5338C267.606 67.8333 268.317 67.277 269.203 66.865C270.11 66.4323 271.191 66.216 272.448 66.216C274.385 66.216 275.889 66.7208 276.96 67.7303C278.032 68.7193 278.567 70.1203 278.567 71.9334V78.7633C278.567 79.3814 278.856 79.6904 279.433 79.6904H280.823V81.761H278.691C278.011 81.761 277.465 81.5756 277.053 81.2048C276.641 80.8133 276.435 80.2982 276.435 79.6595V79.505H276.064C275.837 79.8965 275.528 80.3085 275.137 80.7412C274.766 81.1533 274.251 81.4932 273.592 81.761C272.932 82.0495 272.077 82.1937 271.026 82.1937ZM271.305 80.0922C272.747 80.0922 273.911 79.6698 274.797 78.8251C275.703 77.9598 276.157 76.7545 276.157 75.2093V74.8693H271.15C270.182 74.8693 269.378 75.0856 268.74 75.5183C268.121 75.9304 267.812 76.5588 267.812 77.4035C267.812 78.2482 268.132 78.9075 268.77 79.3814C269.43 79.8553 270.274 80.0922 271.305 80.0922ZM284.167 81.761V66.6487H286.547V68.5029H286.979C287.247 67.8436 287.659 67.3595 288.216 67.0504C288.772 66.7414 289.503 66.5868 290.41 66.5868H292.202V68.812H290.255C289.163 68.812 288.277 69.121 287.597 69.7391C286.938 70.3366 286.608 71.2741 286.608 72.5514V81.761H284.167ZM302.196 82.1937C300.671 82.1937 299.332 81.8744 298.178 81.2357C297.025 80.5764 296.128 79.6595 295.49 78.4851C294.851 77.3108 294.532 75.951 294.532 74.4057V74.0349C294.532 72.469 294.851 71.0989 295.49 69.9245C296.128 68.7502 297.014 67.8436 298.148 67.2049C299.281 66.5456 300.579 66.216 302.042 66.216C303.463 66.216 304.72 66.525 305.812 67.1431C306.904 67.7406 307.759 68.6059 308.377 69.7391C308.995 70.8723 309.304 72.2012 309.304 73.7258V74.8384H296.973C297.035 76.466 297.56 77.7434 298.549 78.6706C299.538 79.5771 300.774 80.0304 302.258 80.0304C303.556 80.0304 304.555 79.7316 305.256 79.1341C305.956 78.5367 306.492 77.8258 306.863 77.0017L308.964 78.0216C308.655 78.6603 308.222 79.299 307.666 79.9377C307.13 80.5764 306.42 81.112 305.534 81.5447C304.668 81.9774 303.556 82.1937 302.196 82.1937ZM297.004 72.8296H306.832C306.749 71.4286 306.265 70.3366 305.379 69.5537C304.514 68.7708 303.401 68.3793 302.042 68.3793C300.661 68.3793 299.528 68.7708 298.642 69.5537C297.756 70.3366 297.21 71.4286 297.004 72.8296ZM321.407 81.761V60.1278H334.727V62.4765H324.003V69.7082H333.862V72.057H324.003V79.4123H334.882V81.761H321.407ZM338.914 81.761V66.6487H341.294V69.2137H341.727C342.056 68.4926 342.612 67.8436 343.395 67.2667C344.199 66.6693 345.373 66.3705 346.919 66.3705C348.052 66.3705 349.061 66.6074 349.947 67.0813C350.854 67.5552 351.575 68.2557 352.111 69.1828C352.646 70.11 352.914 71.2535 352.914 72.6133V81.761H350.473V72.7987C350.473 71.2947 350.091 70.2027 349.329 69.5228C348.587 68.8429 347.578 68.5029 346.3 68.5029C344.838 68.5029 343.643 68.9768 342.715 69.9245C341.809 70.8723 341.356 72.2836 341.356 74.1585V81.761H338.914ZM357.126 74.2821V73.8494C357.126 72.263 357.445 70.9032 358.084 69.77C358.723 68.6369 359.588 67.7612 360.68 67.1431C361.772 66.525 362.967 66.216 364.265 66.216C365.851 66.216 367.067 66.525 367.911 67.1431C368.777 67.7406 369.416 68.4102 369.828 69.1519H370.26V66.6487H372.578V85.2842C372.578 86.1083 372.351 86.7573 371.898 87.2312C371.445 87.705 370.786 87.942 369.92 87.942H359.66V85.7787H369.271C369.889 85.7787 370.198 85.4696 370.198 84.8515V79.1032H369.766C369.519 79.5565 369.168 79.9995 368.715 80.4321C368.262 80.8648 367.675 81.2254 366.953 81.5138C366.232 81.7817 365.336 81.9156 364.265 81.9156C362.967 81.9156 361.772 81.6065 360.68 80.9884C359.588 80.3703 358.723 79.4947 358.084 78.3615C357.445 77.2078 357.126 75.8479 357.126 74.2821ZM364.914 79.7522C366.48 79.7522 367.747 79.2578 368.715 78.2688C369.704 77.2799 370.198 75.9201 370.198 74.1894V73.9422C370.198 72.1909 369.704 70.8311 368.715 69.8627C367.747 68.8738 366.48 68.3793 364.914 68.3793C363.369 68.3793 362.091 68.8738 361.082 69.8627C360.093 70.8311 359.598 72.1909 359.598 73.9422V74.1894C359.598 75.9201 360.093 77.2799 361.082 78.2688C362.091 79.2578 363.369 79.7522 364.914 79.7522ZM377.696 81.761V66.6487H380.137V81.761H377.696ZM378.932 64.2999C378.396 64.2999 377.943 64.1248 377.572 63.7745C377.222 63.4243 377.047 62.9813 377.047 62.4456C377.047 61.8893 377.222 61.4361 377.572 61.0858C377.943 60.7356 378.396 60.5604 378.932 60.5604C379.468 60.5604 379.911 60.7356 380.261 61.0858C380.611 61.4361 380.786 61.8893 380.786 62.4456C380.786 62.9813 380.611 63.4243 380.261 63.7745C379.911 64.1248 379.468 64.2999 378.932 64.2999ZM385.271 81.761V66.6487H387.651V69.2137H388.084C388.413 68.4926 388.969 67.8436 389.752 67.2667C390.556 66.6693 391.73 66.3705 393.276 66.3705C394.409 66.3705 395.418 66.6074 396.304 67.0813C397.211 67.5552 397.932 68.2557 398.468 69.1828C399.003 70.11 399.271 71.2535 399.271 72.6133V81.761H396.83V72.7987C396.83 71.2947 396.448 70.2027 395.686 69.5228C394.944 68.8429 393.935 68.5029 392.657 68.5029C391.195 68.5029 390 68.9768 389.073 69.9245C388.166 70.8723 387.713 72.2836 387.713 74.1585V81.761H385.271ZM411.147 82.1937C409.623 82.1937 408.283 81.8744 407.13 81.2357C405.976 80.5764 405.08 79.6595 404.441 78.4851C403.802 77.3108 403.483 75.951 403.483 74.4057V74.0349C403.483 72.469 403.802 71.0989 404.441 69.9245C405.08 68.7502 405.965 67.8436 407.099 67.2049C408.232 66.5456 409.53 66.216 410.993 66.216C412.414 66.216 413.671 66.525 414.763 67.1431C415.855 67.7406 416.71 68.6059 417.328 69.7391C417.946 70.8723 418.255 72.2012 418.255 73.7258V74.8384H405.924C405.986 76.466 406.511 77.7434 407.5 78.6706C408.489 79.5771 409.726 80.0304 411.209 80.0304C412.507 80.0304 413.506 79.7316 414.207 79.1341C414.907 78.5367 415.443 77.8258 415.814 77.0017L417.915 78.0216C417.606 78.6603 417.174 79.299 416.617 79.9377C416.082 80.5764 415.371 81.112 414.485 81.5447C413.62 81.9774 412.507 82.1937 411.147 82.1937ZM405.955 72.8296H415.783C415.7 71.4286 415.216 70.3366 414.33 69.5537C413.465 68.7708 412.352 68.3793 410.993 68.3793C409.612 68.3793 408.479 68.7708 407.593 69.5537C406.707 70.3366 406.161 71.4286 405.955 72.8296ZM429.436 82.1937C427.912 82.1937 426.573 81.8744 425.419 81.2357C424.265 80.5764 423.369 79.6595 422.73 78.4851C422.091 77.3108 421.772 75.951 421.772 74.4057V74.0349C421.772 72.469 422.091 71.0989 422.73 69.9245C423.369 68.7502 424.255 67.8436 425.388 67.2049C426.521 66.5456 427.819 66.216 429.282 66.216C430.704 66.216 431.96 66.525 433.052 67.1431C434.144 67.7406 434.999 68.6059 435.617 69.7391C436.235 70.8723 436.545 72.2012 436.545 73.7258V74.8384H424.214C424.275 76.466 424.801 77.7434 425.79 78.6706C426.779 79.5771 428.015 80.0304 429.498 80.0304C430.796 80.0304 431.796 79.7316 432.496 79.1341C433.197 78.5367 433.732 77.8258 434.103 77.0017L436.205 78.0216C435.896 78.6603 435.463 79.299 434.907 79.9377C434.371 80.5764 433.66 81.112 432.774 81.5447C431.909 81.9774 430.796 82.1937 429.436 82.1937ZM424.244 72.8296H434.072C433.99 71.4286 433.506 70.3366 432.62 69.5537C431.754 68.7708 430.642 68.3793 429.282 68.3793C427.902 68.3793 426.768 68.7708 425.882 69.5537C424.996 70.3366 424.45 71.4286 424.244 72.8296ZM440.803 81.761V66.6487H443.183V68.5029H443.615C443.883 67.8436 444.295 67.3595 444.852 67.0504C445.408 66.7414 446.139 66.5868 447.046 66.5868H448.838V68.812H446.891C445.799 68.812 444.913 69.121 444.234 69.7391C443.574 70.3366 443.245 71.2741 443.245 72.5514V81.761H440.803ZM452.453 81.761V66.6487H454.894V81.761H452.453ZM453.689 64.2999C453.153 64.2999 452.7 64.1248 452.329 63.7745C451.979 63.4243 451.804 62.9813 451.804 62.4456C451.804 61.8893 451.979 61.4361 452.329 61.0858C452.7 60.7356 453.153 60.5604 453.689 60.5604C454.225 60.5604 454.668 60.7356 455.018 61.0858C455.368 61.4361 455.543 61.8893 455.543 62.4456C455.543 62.9813 455.368 63.4243 455.018 63.7745C454.668 64.1248 454.225 64.2999 453.689 64.2999ZM460.028 81.761V66.6487H462.408V69.2137H462.84C463.17 68.4926 463.726 67.8436 464.509 67.2667C465.313 66.6693 466.487 66.3705 468.032 66.3705C469.165 66.3705 470.175 66.6074 471.061 67.0813C471.968 67.5552 472.689 68.2557 473.224 69.1828C473.76 70.11 474.028 71.2535 474.028 72.6133V81.761H471.586V72.7987C471.586 71.2947 471.205 70.2027 470.443 69.5228C469.701 68.8429 468.692 68.5029 467.414 68.5029C465.951 68.5029 464.756 68.9768 463.829 69.9245C462.923 70.8723 462.469 72.2836 462.469 74.1585V81.761H460.028ZM478.24 74.2821V73.8494C478.24 72.263 478.559 70.9032 479.198 69.77C479.836 68.6369 480.702 67.7612 481.794 67.1431C482.886 66.525 484.081 66.216 485.379 66.216C486.965 66.216 488.181 66.525 489.025 67.1431C489.891 67.7406 490.529 68.4102 490.941 69.1519H491.374V66.6487H493.692V85.2842C493.692 86.1083 493.465 86.7573 493.012 87.2312C492.559 87.705 491.899 87.942 491.034 87.942H480.774V85.7787H490.385C491.003 85.7787 491.312 85.4696 491.312 84.8515V79.1032H490.88C490.632 79.5565 490.282 79.9995 489.829 80.4321C489.376 80.8648 488.788 81.2254 488.067 81.5138C487.346 81.7817 486.45 81.9156 485.379 81.9156C484.081 81.9156 482.886 81.6065 481.794 80.9884C480.702 80.3703 479.836 79.4947 479.198 78.3615C478.559 77.2078 478.24 75.8479 478.24 74.2821ZM486.028 79.7522C487.593 79.7522 488.86 79.2578 489.829 78.2688C490.818 77.2799 491.312 75.9201 491.312 74.1894V73.9422C491.312 72.1909 490.818 70.8311 489.829 69.8627C488.86 68.8738 487.593 68.3793 486.028 68.3793C484.482 68.3793 483.205 68.8738 482.195 69.8627C481.206 70.8311 480.712 72.1909 480.712 73.9422V74.1894C480.712 75.9201 481.206 77.2799 482.195 78.2688C483.205 79.2578 484.482 79.7522 486.028 79.7522ZM184.813 116.194C182.238 116.194 180.188 115.452 178.663 113.969C177.139 112.465 176.376 110.281 176.376 107.417V102.472C176.376 99.6082 177.139 97.4346 178.663 95.9511C180.188 94.4471 182.238 93.6951 184.813 93.6951C187.368 93.6951 189.325 94.4059 190.685 95.8275C192.066 97.2491 192.756 99.1961 192.756 101.669V101.823H190.191V101.576C190.191 99.9481 189.748 98.6192 188.862 97.5891C187.996 96.5383 186.647 96.0129 184.813 96.0129C182.98 96.0129 181.548 96.5795 180.518 97.7127C179.487 98.8253 178.972 100.391 178.972 102.41V107.479C178.972 109.498 179.487 111.074 180.518 112.207C181.548 113.32 182.98 113.876 184.813 113.876C186.647 113.876 187.996 113.361 188.862 112.331C189.748 111.28 190.191 109.941 190.191 108.313V107.819H192.756V108.22C192.756 110.693 192.066 112.64 190.685 114.061C189.325 115.483 187.368 116.194 184.813 116.194ZM203.9 116.194C202.375 116.194 201.026 115.874 199.852 115.236C198.698 114.597 197.791 113.701 197.132 112.547C196.493 111.373 196.174 109.992 196.174 108.406V108.004C196.174 106.438 196.493 105.068 197.132 103.894C197.791 102.719 198.698 101.813 199.852 101.174C201.026 100.535 202.375 100.216 203.9 100.216C205.425 100.216 206.764 100.535 207.918 101.174C209.092 101.813 209.999 102.719 210.637 103.894C211.297 105.068 211.626 106.438 211.626 108.004V108.406C211.626 109.992 211.297 111.373 210.637 112.547C209.999 113.701 209.092 114.597 207.918 115.236C206.764 115.874 205.425 116.194 203.9 116.194ZM203.9 113.999C205.507 113.999 206.784 113.495 207.732 112.485C208.701 111.455 209.185 110.075 209.185 108.344V108.066C209.185 106.335 208.701 104.965 207.732 103.955C206.784 102.925 205.507 102.41 203.9 102.41C202.314 102.41 201.036 102.925 200.068 103.955C199.1 104.965 198.615 106.335 198.615 108.066V108.344C198.615 110.075 199.1 111.455 200.068 112.485C201.036 113.495 202.314 113.999 203.9 113.999ZM216.02 115.761V100.649H218.399V103.214H218.832C219.162 102.493 219.718 101.844 220.501 101.267C221.304 100.669 222.479 100.371 224.024 100.371C225.157 100.371 226.167 100.607 227.053 101.081C227.959 101.555 228.68 102.256 229.216 103.183C229.752 104.11 230.02 105.253 230.02 106.613V115.761H227.578V106.799C227.578 105.295 227.197 104.203 226.435 103.523C225.693 102.843 224.683 102.503 223.406 102.503C221.943 102.503 220.748 102.977 219.821 103.925C218.915 104.872 218.461 106.284 218.461 108.158V115.761H216.02ZM237.517 115.761V102.781H232.882V100.649H237.517V96.7856C237.517 95.9614 237.744 95.3124 238.197 94.8386C238.671 94.3647 239.341 94.1278 240.206 94.1278H244.007V96.2293H240.886C240.268 96.2293 239.959 96.5383 239.959 97.1564V100.649H244.718V102.781H239.959V115.761H237.517ZM254.39 116.194C252.866 116.194 251.527 115.874 250.373 115.236C249.219 114.576 248.323 113.66 247.684 112.485C247.045 111.311 246.726 109.951 246.726 108.406V108.035C246.726 106.469 247.045 105.099 247.684 103.925C248.323 102.75 249.209 101.844 250.342 101.205C251.475 100.546 252.773 100.216 254.236 100.216C255.657 100.216 256.914 100.525 258.006 101.143C259.098 101.741 259.953 102.606 260.571 103.739C261.189 104.872 261.498 106.201 261.498 107.726V108.838H249.167C249.229 110.466 249.755 111.743 250.744 112.671C251.733 113.577 252.969 114.03 254.452 114.03C255.75 114.03 256.749 113.732 257.45 113.134C258.15 112.537 258.686 111.826 259.057 111.002L261.158 112.022C260.849 112.66 260.417 113.299 259.86 113.938C259.325 114.576 258.614 115.112 257.728 115.545C256.863 115.977 255.75 116.194 254.39 116.194ZM249.198 106.83H259.026C258.944 105.429 258.459 104.337 257.574 103.554C256.708 102.771 255.596 102.379 254.236 102.379C252.855 102.379 251.722 102.771 250.836 103.554C249.95 104.337 249.404 105.429 249.198 106.83ZM265.757 115.761V100.649H268.137V102.503H268.569C268.837 101.844 269.249 101.359 269.806 101.05C270.362 100.741 271.093 100.587 272 100.587H273.792V102.812H271.845C270.753 102.812 269.867 103.121 269.187 103.739C268.528 104.337 268.198 105.274 268.198 106.551V115.761H265.757ZM283.786 116.194C282.261 116.194 280.922 115.874 279.768 115.236C278.615 114.576 277.718 113.66 277.08 112.485C276.441 111.311 276.122 109.951 276.122 108.406V108.035C276.122 106.469 276.441 105.099 277.08 103.925C277.718 102.75 278.604 101.844 279.738 101.205C280.871 100.546 282.169 100.216 283.632 100.216C285.053 100.216 286.31 100.525 287.402 101.143C288.494 101.741 289.349 102.606 289.967 103.739C290.585 104.872 290.894 106.201 290.894 107.726V108.838H278.563C278.625 110.466 279.15 111.743 280.139 112.671C281.128 113.577 282.364 114.03 283.848 114.03C285.146 114.03 286.145 113.732 286.846 113.134C287.546 112.537 288.082 111.826 288.453 111.002L290.554 112.022C290.245 112.66 289.812 113.299 289.256 113.938C288.72 114.576 288.01 115.112 287.124 115.545C286.258 115.977 285.146 116.194 283.786 116.194ZM278.594 106.83H288.422C288.339 105.429 287.855 104.337 286.969 103.554C286.104 102.771 284.991 102.379 283.632 102.379C282.251 102.379 281.118 102.771 280.232 103.554C279.346 104.337 278.8 105.429 278.594 106.83ZM295.153 115.761V100.649H297.532V103.214H297.965C298.295 102.493 298.851 101.844 299.634 101.267C300.437 100.669 301.612 100.371 303.157 100.371C304.29 100.371 305.3 100.607 306.186 101.081C307.092 101.555 307.813 102.256 308.349 103.183C308.885 104.11 309.153 105.253 309.153 106.613V115.761H306.711V106.799C306.711 105.295 306.33 104.203 305.568 103.523C304.826 102.843 303.816 102.503 302.539 102.503C301.076 102.503 299.881 102.977 298.954 103.925C298.047 104.872 297.594 106.284 297.594 108.158V115.761H295.153ZM321.059 116.194C319.597 116.194 318.278 115.885 317.104 115.267C315.95 114.628 315.033 113.721 314.353 112.547C313.694 111.373 313.364 109.982 313.364 108.375V108.035C313.364 106.407 313.694 105.017 314.353 103.863C315.033 102.688 315.95 101.792 317.104 101.174C318.278 100.535 319.597 100.216 321.059 100.216C322.502 100.216 323.728 100.484 324.737 101.02C325.767 101.555 326.571 102.266 327.148 103.152C327.745 104.038 328.126 104.986 328.291 105.995L325.912 106.49C325.809 105.748 325.561 105.068 325.17 104.45C324.799 103.832 324.274 103.337 323.594 102.967C322.914 102.596 322.079 102.41 321.09 102.41C320.081 102.41 319.174 102.637 318.371 103.09C317.588 103.543 316.959 104.192 316.486 105.037C316.032 105.882 315.806 106.891 315.806 108.066V108.344C315.806 109.518 316.032 110.528 316.486 111.373C316.959 112.217 317.588 112.866 318.371 113.32C319.174 113.773 320.081 113.999 321.09 113.999C322.594 113.999 323.738 113.608 324.521 112.825C325.324 112.042 325.819 111.074 326.004 109.92L328.415 110.445C328.188 111.434 327.776 112.372 327.179 113.258C326.581 114.144 325.767 114.855 324.737 115.39C323.728 115.926 322.502 116.194 321.059 116.194ZM339.499 116.194C337.974 116.194 336.635 115.874 335.481 115.236C334.328 114.576 333.431 113.66 332.793 112.485C332.154 111.311 331.835 109.951 331.835 108.406V108.035C331.835 106.469 332.154 105.099 332.793 103.925C333.431 102.75 334.317 101.844 335.45 101.205C336.584 100.546 337.882 100.216 339.344 100.216C340.766 100.216 342.023 100.525 343.115 101.143C344.207 101.741 345.062 102.606 345.68 103.739C346.298 104.872 346.607 106.201 346.607 107.726V108.838H334.276C334.338 110.466 334.863 111.743 335.852 112.671C336.841 113.577 338.077 114.03 339.561 114.03C340.859 114.03 341.858 113.732 342.559 113.134C343.259 112.537 343.795 111.826 344.166 111.002L346.267 112.022C345.958 112.66 345.525 113.299 344.969 113.938C344.433 114.576 343.723 115.112 342.837 115.545C341.971 115.977 340.859 116.194 339.499 116.194ZM334.307 106.83H344.135C344.052 105.429 343.568 104.337 342.682 103.554C341.817 102.771 340.704 102.379 339.344 102.379C337.964 102.379 336.831 102.771 335.945 103.554C335.059 104.337 334.513 105.429 334.307 106.83Z" fill="#F5F0E9"/>
</g>
<line x1="152.861" y1="9.88055" x2="152.861" y2="131.867" stroke="#F5F0E9" stroke-width="1.52007"/>
<path d="M74.2281 14.9112L109.327 26.3156L131.02 56.1727V93.0781L109.327 122.935L74.2281 134.34L39.129 122.935L17.4366 93.0781V56.1727L39.129 26.3156L74.2281 14.9112Z" fill="url(#paint0_linear_1_69)"/>
<path d="M40.4349 28.2877L74.1641 17.3433L107.829 28.3517L74.1641 39.2961L40.4349 28.2877Z" fill="#000072"/>
<path d="M40.4349 28.2877L74.1641 17.3433L107.829 28.3517L74.1641 39.2961L40.4349 28.2877Z" fill="url(#paint1_linear_1_69)" fill-opacity="0.7"/>
<path d="M34.7387 77.6974L74.1641 39.296L19.6341 56.9607L34.7387 77.6974Z" fill="#000072"/>
<path d="M34.7387 77.6974L74.1641 39.296L19.6341 56.9607L34.7387 77.6974Z" fill="url(#paint2_linear_1_69)"/>
<path d="M34.7387 77.6974L74.1641 39.296L19.6341 56.9607L34.7387 77.6974Z" fill="url(#paint3_linear_1_69)" fill-opacity="0.7"/>
<path d="M74.1641 39.2961L40.4349 28.2877L19.6341 56.9608L74.1641 39.2961Z" fill="#000072"/>
<path d="M74.1641 39.2961L40.4349 28.2877L19.6341 56.9608L74.1641 39.2961Z" fill="url(#paint4_linear_1_69)" fill-opacity="0.7"/>
<path d="M74.228 110.147L128.694 92.4181L107.765 121.091L74.228 110.147Z" fill="#000072"/>
<path d="M74.228 110.147L128.694 92.4181L107.765 121.091L74.228 110.147Z" fill="url(#paint5_linear_1_69)" fill-opacity="0.7"/>
<path d="M111.861 69.2492L74.228 110.147L128.694 92.418L111.861 69.2492Z" fill="#000072"/>
<path d="M111.861 69.2492L74.228 110.147L128.694 92.418L111.861 69.2492Z" fill="url(#paint6_linear_1_69)" fill-opacity="0.7"/>
<path d="M111.861 69.2492L74.228 110.147L128.694 92.418L111.861 69.2492Z" fill="url(#paint7_linear_1_69)" fill-opacity="0.8"/>
<path d="M19.6341 92.4181L34.7387 77.6975L74.2281 110.147L40.4349 121.091L19.6341 92.4181Z" fill="#000072"/>
<path d="M19.6341 92.4181L34.7387 77.6975L74.2281 110.147L40.4349 121.091L19.6341 92.4181Z" fill="url(#paint8_linear_1_69)" fill-opacity="0.9"/>
<path d="M111.861 69.2492L128.63 57.0247L107.829 28.3517L74.1641 39.2961L111.861 69.2492Z" fill="#000072"/>
<path d="M111.861 69.2492L128.63 57.0247L107.829 28.3517L74.1641 39.2961L111.861 69.2492Z" fill="url(#paint9_linear_1_69)" fill-opacity="0.7"/>
<path d="M128.63 57.0247L111.861 69.2492L128.694 92.418L128.63 57.0247Z" fill="#000072"/>
<path d="M128.63 57.0247L111.861 69.2492L128.694 92.418L128.63 57.0247Z" fill="url(#paint10_linear_1_69)" fill-opacity="0.7"/>
<path d="M34.7387 77.6975L19.6341 92.418V56.9608L34.7387 77.6975Z" fill="#000072"/>
<path d="M34.7387 77.6975L19.6341 92.418V56.9608L34.7387 77.6975Z" fill="url(#paint11_linear_1_69)" fill-opacity="0.9"/>
<path d="M74.228 110.147L111.861 69.2491L74.164 39.296L34.7386 77.6974L74.228 110.147Z" fill="#000072"/>
<path d="M74.228 110.147L111.861 69.2491L74.164 39.296L34.7386 77.6974L74.228 110.147Z" fill="url(#paint12_linear_1_69)" fill-opacity="0.7"/>
<path d="M74.228 110.147L111.861 69.2491L74.164 39.296L34.7386 77.6974L74.228 110.147Z" fill="url(#paint13_linear_1_69)" fill-opacity="0.7"/>
<path d="M74.2281 110.147L40.4349 121.091L74.1641 132.035L107.765 121.091L74.2281 110.147Z" fill="#000072"/>
<path d="M74.2281 110.147L40.4349 121.091L74.1641 132.035L107.765 121.091L74.2281 110.147Z" fill="url(#paint14_linear_1_69)" fill-opacity="0.9"/>
<path d="M40.4989 121.091L74.2281 110.147M40.4989 121.091L19.6341 92.418M40.4989 121.091L74.1641 132.035L107.701 121.027M128.694 92.418L111.861 69.2492M128.694 92.418L128.566 57.0247M128.694 92.418L107.701 121.027M128.694 92.418L74.2281 110.147M111.861 69.2492L128.566 57.0247M111.861 69.2492L74.1641 39.2961M111.861 69.2492L74.2281 110.147M128.566 57.0247L107.829 28.3517M107.701 121.027L74.2281 110.147M74.2281 110.147L34.9307 77.8895L19.6981 56.9607M19.6981 56.9607L74.1641 39.2961M19.6981 56.9607L19.6341 92.418M19.6981 56.9607L40.6269 28.3517M74.1641 39.2961L19.6341 92.418M74.1641 39.2961L40.6269 28.3517M74.1641 39.2961L107.829 28.3517M40.6269 28.3517L74.1641 17.3433L107.829 28.3517" stroke="url(#paint15_linear_1_69)" stroke-width="2.35198"/>
<defs>
<filter id="filter0_i_1_69" x="176.005" y="25.6951" width="317.686" height="91.1167" filterUnits="userSpaceOnUse" color-interpolation-filters="sRGB">
<feFlood flood-opacity="0" result="BackgroundImageFix"/>
<feBlend mode="normal" in="SourceGraphic" in2="BackgroundImageFix" result="shape"/>
<feColorMatrix in="SourceAlpha" type="matrix" values="0 0 0 0 0 0 0 0 0 0 0 0 0 0 0 0 0 0 127 0" result="hardAlpha"/>
<feOffset dy="0.618094"/>
<feGaussianBlur stdDeviation="0.309047"/>
<feComposite in2="hardAlpha" operator="arithmetic" k2="-1" k3="1"/>
<feColorMatrix type="matrix" values="0 0 0 0 0 0 0 0 0 0 0 0 0 0 0 0 0 0 0.05 0"/>
<feBlend mode="normal" in2="shape" result="effect1_innerShadow_1_69"/>
</filter>
<linearGradient id="paint0_linear_1_69" x1="155.465" y1="73.3002" x2="-6.8685" y2="73.3002" gradientUnits="userSpaceOnUse">
<stop stop-color="#555454"/>
<stop offset="0.3" stop-color="#9A9A9A"/>
<stop offset="0.5" stop-color="#E0E0E0"/>
<stop offset="0.697174" stop-color="#9A9A9A"/>
<stop offset="1" stop-color="#555454"/>
</linearGradient>
<linearGradient id="paint1_linear_1_69" x1="19.8261" y1="17.3433" x2="121.27" y2="17.3433" gradientUnits="userSpaceOnUse">
<stop stop-color="#000072" stop-opacity="0"/>
<stop offset="1" stop-color="#F5F0E9"/>
</linearGradient>
<linearGradient id="paint2_linear_1_69" x1="41.5869" y1="61.8888" x2="30.2585" y2="97.2181" gradientUnits="userSpaceOnUse">
<stop stop-color="#951C1E" stop-opacity="0"/>
<stop offset="1" stop-color="#951C1E"/>
</linearGradient>
<linearGradient id="paint3_linear_1_69" x1="51.6993" y1="55.6166" x2="131.382" y2="0.766617" gradientUnits="userSpaceOnUse">
<stop stop-color="#F5F0E9" stop-opacity="0"/>
<stop offset="1" stop-color="#F5F0E9"/>
</linearGradient>
<linearGradient id="paint4_linear_1_69" x1="147.831" y1="48.7045" x2="40.3709" y2="24.4476" gradientUnits="userSpaceOnUse">
<stop offset="0.424631" stop-color="#F5F0E9"/>
<stop offset="1" stop-color="#000072" stop-opacity="0"/>
</linearGradient>
<linearGradient id="paint5_linear_1_69" x1="117.878" y1="111.683" x2="61.6196" y2="113.027" gradientUnits="userSpaceOnUse">
<stop stop-color="#000072" stop-opacity="0"/>
<stop offset="1" stop-color="#951C1E"/>
</linearGradient>
<linearGradient id="paint6_linear_1_69" x1="122.55" y1="56.4487" x2="111.989" y2="93.5701" gradientUnits="userSpaceOnUse">
<stop offset="0.0535586" stop-color="#F5F0E9"/>
<stop offset="1" stop-color="#000072" stop-opacity="0"/>
</linearGradient>
<linearGradient id="paint7_linear_1_69" x1="60.5955" y1="120.451" x2="110.773" y2="92.162" gradientUnits="userSpaceOnUse">
<stop stop-color="#951C1E"/>
<stop offset="1" stop-color="#000072" stop-opacity="0"/>
</linearGradient>
<linearGradient id="paint8_linear_1_69" x1="88.8627" y1="67.7655" x2="29.0832" y2="121.142" gradientUnits="userSpaceOnUse">
<stop stop-color="#000072" stop-opacity="0"/>
<stop offset="1" stop-color="#A40B0D"/>
</linearGradient>
<linearGradient id="paint9_linear_1_69" x1="60.5316" y1="83.8417" x2="116.598" y2="28.3517" gradientUnits="userSpaceOnUse">
<stop stop-color="#000072" stop-opacity="0"/>
<stop offset="1" stop-color="#F5F0E9"/>
</linearGradient>
<linearGradient id="paint10_linear_1_69" x1="124.214" y1="47.5524" x2="122.55" y2="104.514" gradientUnits="userSpaceOnUse">
<stop stop-color="#F5F0E9"/>
<stop offset="1" stop-color="#000072" stop-opacity="0"/>
</linearGradient>
<linearGradient id="paint11_linear_1_69" x1="31.0265" y1="34.1119" x2="19.6341" y2="101.57" gradientUnits="userSpaceOnUse">
<stop stop-color="#000072" stop-opacity="0"/>
<stop offset="1" stop-color="#A40B0D"/>
</linearGradient>
<linearGradient id="paint12_linear_1_69" x1="84.1484" y1="74.6893" x2="44.7229" y2="113.731" gradientUnits="userSpaceOnUse">
<stop stop-color="#000072" stop-opacity="0"/>
<stop offset="0.835723" stop-color="#A40B0D"/>
</linearGradient>
<linearGradient id="paint13_linear_1_69" x1="127.222" y1="26.6876" x2="71.0919" y2="80.4495" gradientUnits="userSpaceOnUse">
<stop offset="0.240449" stop-color="#F5F0E9"/>
<stop offset="1" stop-color="#000072" stop-opacity="0"/>
</linearGradient>
<linearGradient id="paint14_linear_1_69" x1="26.5463" y1="125.187" x2="146.167" y2="127.171" gradientUnits="userSpaceOnUse">
<stop stop-color="#A40B0D"/>
<stop offset="1" stop-color="#000072" stop-opacity="0"/>
</linearGradient>
<linearGradient id="paint15_linear_1_69" x1="148.348" y1="73.4167" x2="0.108022" y2="73.4167" gradientUnits="userSpaceOnUse">
<stop stop-color="#555454"/>
<stop offset="0.3" stop-color="#9A9A9A"/>
<stop offset="0.5" stop-color="#E0E0E0"/>
<stop offset="0.697174" stop-color="#9A9A9A"/>
<stop offset="1" stop-color="#555454"/>
</linearGradient>
</defs>
</svg>
